<svg width="512" height="512" viewBox="0 0 512 512" fill="none" xmlns="http://www.w3.org/2000/svg" role="img" aria-label="Linkosaurus">
  <defs>
    <linearGradient id="lk-tile" x1="0" y1="0" x2="0" y2="512" gradientUnits="userSpaceOnUse">
      <stop offset="0" stop-color="#8b6cff"/>
      <stop offset="1" stop-color="#5b3fd6"/>
    </linearGradient>
    <linearGradient id="lk-sheen" x1="0" y1="0" x2="0" y2="512" gradientUnits="userSpaceOnUse">
      <stop offset="0" stop-color="#ffffff" stop-opacity="0.20"/>
      <stop offset="0.5" stop-color="#ffffff" stop-opacity="0"/>
    </linearGradient>
  </defs>

  <rect x="16" y="16" width="480" height="480" rx="118" fill="url(#lk-tile)"/>
  <rect x="16" y="16" width="480" height="480" rx="118" fill="url(#lk-sheen)"/>

  <ellipse cx="256" cy="398" rx="140" ry="18" fill="#000000" opacity="0.13"/>

  <!-- minimal geometric long-neck sauropod (white) -->
  <g fill="none" stroke="#ffffff" stroke-linecap="round" stroke-linejoin="round">
    <!-- tail -->
    <path d="M176 322 C140 342 118 352 96 360" stroke-width="34"/>
    <!-- neck -->
    <path d="M330 300 C356 250 372 206 384 170" stroke-width="42"/>
  </g>
  <g fill="#ffffff">
    <!-- body capsule -->
    <rect x="150" y="288" width="204" height="82" rx="41"/>
    <!-- head -->
    <circle cx="388" cy="162" r="31"/>
    <!-- snout -->
    <rect x="384" y="150" width="46" height="26" rx="13"/>
    <!-- legs -->
    <rect x="190" y="356" width="38" height="56" rx="19"/>
    <rect x="300" y="356" width="38" height="56" rx="19"/>
  </g>

  <!-- eye -->
  <circle cx="398" cy="158" r="6.5" fill="#5b3fd6"/>

  <!-- auto-link motif: connected node graph along the back (cyan) -->
  <g>
    <path d="M196 300 L256 282 L316 298 L372 198" stroke="#38e8d0" stroke-width="8" stroke-linecap="round" stroke-linejoin="round" fill="none"/>
    <g fill="#38e8d0" stroke="#0e6f63" stroke-width="3">
      <circle cx="196" cy="300" r="14"/>
      <circle cx="256" cy="282" r="14"/>
      <circle cx="316" cy="298" r="14"/>
    </g>
  </g>
</svg>
